<?xml version="1.0" encoding="UTF-8" standalone="no"?>
<!DOCTYPE svg PUBLIC "-//W3C//DTD SVG 1.1//EN" "http://www.w3.org/Graphics/SVG/1.1/DTD/svg11.dtd">
<svg width="100%" height="100%" viewBox="0 0 125 125" version="1.1" xmlns="http://www.w3.org/2000/svg" xmlns:xlink="http://www.w3.org/1999/xlink" xml:space="preserve" xmlns:serif="http://www.serif.com/" style="fill-rule:evenodd;clip-rule:evenodd;stroke-linejoin:round;stroke-miterlimit:2;">
    <g id="Comfort-Companions-logo-icon" serif:id="Comfort Companions logo icon" transform="matrix(0.15201,0,0,0.15035,1.69603,-17.5015)">
        <g id="Hands" transform="matrix(1,0,0,1,-2.25302,0)">
            <path d="M575,766.667L433.333,766.667L433.333,725C433.333,720.417 424.583,596 518.417,526.583C530.214,518.149 541.031,508.422 550.667,497.583L658.5,372.583C664.915,365.11 673.776,360.147 683.5,358.583L683.5,166.667C683.475,144.545 701.07,126.062 723.167,125C734.265,124.522 745.087,128.622 753.083,136.333C761.797,144.79 766.704,156.44 766.667,168.583L766.667,418.583C766.683,430.58 767.603,442.558 769.417,454.417C773.083,479.417 774.417,527.583 741.333,564.417C695.5,615.667 656.667,655.083 615.583,696.75L597.5,714.917L575,729.5L575,766.667ZM450,750L558.333,750L558.333,720.5L587.333,701.5L603.5,684.833C644.417,643.167 683.083,604 728.5,552.917C757.083,521.167 755.75,478.917 752.5,456.5C750.737,443.912 749.902,431.211 750,418.5L750,168.5C750.07,160.954 747.058,153.697 741.667,148.417C736.978,143.858 730.618,141.417 724.083,141.667C710.717,142.157 699.991,153.292 700,166.667L700,359.667C706.157,361.298 711.86,364.32 716.667,368.5C725.053,375.633 730.222,385.852 731,396.833L731,400C730.994,410.007 727.384,419.685 720.833,427.25L610.667,555.833C609.09,557.542 606.868,558.514 604.543,558.514C599.972,558.514 596.21,554.753 596.21,550.181C596.21,548.263 596.872,546.403 598.083,544.917L709.167,416.667C713.211,412.072 715.384,406.12 715.25,400L715.25,398.333C714.724,391.914 711.737,385.939 706.917,381.667C702.792,377.698 697.381,375.332 691.667,375L690,375C682.878,374.991 676.081,378.025 671.333,383.333L563.5,508.333C553.06,520.091 541.35,530.655 528.583,539.833C442.25,603.833 450,723.167 450,724.333L450,750Z" style="fill:rgb(253,251,212);fill-rule:nonzero;"/>
            <path d="M371.167,766.667L229.5,766.667L229.5,729.5L205.917,713.75L189.25,697.083C148.167,655.417 109.333,616 63.25,564.667C29.917,527.833 31.417,479.917 35.167,454.667C36.912,442.801 37.804,430.826 37.833,418.833L37.833,168.833C37.826,156.598 42.827,144.877 51.667,136.417C59.624,128.688 70.416,124.558 81.5,125C91.831,125.433 101.627,129.75 108.917,137.083C116.774,144.916 121.186,155.572 121.167,166.667L121.167,359C130.891,360.564 139.752,365.526 146.167,373L254,498C263.635,508.839 274.452,518.566 286.25,527C380.083,596.417 371.667,720.833 371.25,726.083L371.167,766.667ZM246.167,750L354.5,750L354.5,725C354.5,723.167 362.833,603.833 276.25,540C263.574,530.772 251.973,520.15 241.667,508.333L133.333,383.833C128.566,378.503 121.734,375.467 114.583,375.5L113.083,375.5C107.549,375.74 102.257,377.857 98.083,381.5C93.263,385.773 90.276,391.747 89.75,398.167L89.75,400.083C89.599,406.152 91.709,412.064 95.667,416.667L206.75,544.917C207.961,546.403 208.623,548.263 208.623,550.181C208.623,554.753 204.862,558.514 200.29,558.514C197.965,558.514 195.743,557.542 194.167,555.833L83.333,427.5C76.606,419.918 72.871,410.136 72.833,400L72.833,396.833C73.662,385.842 78.82,375.616 87.167,368.417C92.082,364.099 97.974,361.039 104.333,359.5L104.333,166.667C104.35,160.012 101.708,153.619 97,148.917C92.552,144.496 86.6,141.907 80.333,141.667C73.781,141.409 67.409,143.886 62.75,148.5C57.366,153.785 54.357,161.039 54.417,168.583L54.417,418.583C54.417,431.386 53.47,444.171 51.583,456.833C48.25,479.25 47,521.5 75.583,553.25C121.417,604.333 160.083,643.583 201,685.167L217.167,701.833L246.083,720.833L246.167,750Z" style="fill:rgb(253,251,212);fill-rule:nonzero;"/>
        </g>
        <g transform="matrix(1,0,0,1,2.05392,-40.1592)">
            <g id="Heart" transform="matrix(0.711239,0,0,0.711239,115.726,89.5964)">
                <path d="M398.25,767.083L111.583,480.417C44.917,413.75 19.917,335.083 40,258.833C58.877,189.536 113.304,135.301 182.667,116.667C256.667,96.75 332.667,120.167 398.25,182.417C513.5,71.75 639.417,94.833 708.333,164.083C777.25,233.333 801.417,363.583 684.667,480.75L398.25,767.083ZM234.167,126.083C218.237,126.064 202.375,128.165 187,132.333C123.246,149.483 73.273,199.423 56.083,263.167C37.25,333.333 61.167,406.417 123.417,468.583L398.417,743.583L673.417,468.583C781.75,360.25 761.917,240.667 697.167,175.833C632.417,111 512.917,90.833 404.167,200L398.25,205.917L392.417,200C344.083,151.25 289.25,126.083 234.167,126.083Z" style="fill:rgb(253,251,212);fill-rule:nonzero;stroke:rgb(253,251,212);stroke-width:9.3px;"/>
            </g>
            <g id="Paw-Print" serif:id="Paw Print" transform="matrix(0.690947,0,0,0.687166,123.617,125.003)">
                <path d="M507.031,441.031C489.078,410.094 450.437,388.688 405.625,388.688C360.813,388.688 322.172,410.094 304.219,441.031C272.141,456 251.875,477.938 251.875,502.406C251.875,547.516 320.703,584.078 405.625,584.078C490.547,584.078 559.375,547.516 559.375,502.406C559.375,477.937 539.109,456 507.031,441.031Z" style="fill:none;fill-rule:nonzero;stroke:rgb(253,251,212);stroke-width:14.51px;stroke-linejoin:miter;stroke-miterlimit:10;"/>
                <g transform="matrix(0.230729,-0.973018,0.973018,0.230729,86.7656,662.156)">
                    <ellipse cx="462.141" cy="276.203" rx="60.547" ry="46.437" style="fill:none;stroke:rgb(253,251,212);stroke-width:14.49px;stroke-linejoin:miter;stroke-miterlimit:10;"/>
                </g>
                <g transform="matrix(0.973018,-0.230729,0.230729,0.973018,-54.75,84.2031)">
                    <ellipse cx="332.703" cy="276.203" rx="46.438" ry="60.547" style="fill:none;stroke:rgb(253,251,212);stroke-width:14.49px;stroke-linejoin:miter;stroke-miterlimit:10;"/>
                </g>
                <g transform="matrix(0.866025,-0.5,0.5,0.866025,-156.578,166.641)">
                    <ellipse cx="232.672" cy="375.5" rx="40.813" ry="53.203" style="fill:none;stroke:rgb(253,251,212);stroke-width:14.48px;stroke-linejoin:miter;stroke-miterlimit:10;"/>
                </g>
                <g transform="matrix(0.5,-0.866025,0.866025,0.5,-29.5938,672.188)">
                    <ellipse cx="567.328" cy="361.734" rx="53.203" ry="40.813" style="fill:none;stroke:rgb(253,251,212);stroke-width:14.48px;stroke-linejoin:miter;stroke-miterlimit:10;"/>
                </g>
            </g>
        </g>
    </g>
    <g transform="matrix(0.625,0,0,0.625,-6.24528,8.89328)">
        <g>
            <g transform="matrix(1,0,0,1,11.462,162.055)">
                <text x="0px" y="0px" style="font-family:'Nunito-Bold', 'Nunito';font-weight:700;font-size:20px;fill:rgb(241,221,189);stroke:rgb(253,251,212);stroke-width:1.6px;">C</text>
            </g>
            <g transform="matrix(1,0,0,1,24.362,162.055)">
                <text x="0px" y="0px" style="font-family:'Nunito-Bold', 'Nunito';font-weight:700;font-size:20px;fill:rgb(241,221,189);stroke:rgb(253,251,212);stroke-width:1.6px;">omf</text>
            </g>
            <g transform="matrix(1,0,0,1,60.442,162.055)">
                <g>
                    <text x="0px" y="0px" style="font-family:'Nunito-Bold', 'Nunito';font-weight:700;font-size:20px;fill:rgb(241,221,189);stroke:rgb(253,251,212);stroke-width:1.6px;">or</text>
                    <g transform="matrix(1,0,0,1,19.92,0)">
                        <text x="0px" y="0px" style="font-family:'Nunito-Bold', 'Nunito';font-weight:700;font-size:20px;fill:rgb(241,221,189);stroke:rgb(253,251,212);stroke-width:1.6px;">t C</text>
                    </g>
                </g>
            </g>
            <g transform="matrix(1,0,0,1,106.362,162.055)">
                <text x="0px" y="0px" style="font-family:'Nunito-Bold', 'Nunito';font-weight:700;font-size:20px;fill:rgb(241,221,189);stroke:rgb(253,251,212);stroke-width:1.6px;">ompanions</text>
            </g>
        </g>
    </g>
    <g transform="matrix(0.625,0,0,0.625,31.161,21.5448)">
        <g>
            <g transform="matrix(1,0,0,1,11.462,162.055)">
                <text x="0px" y="0px" style="font-family:'Nunito-Regular', 'Nunito';font-size:20px;fill:rgb(241,221,189);stroke:rgb(253,251,212);stroke-width:1.6px;">P</text>
            </g>
            <g transform="matrix(1,0,0,1,23.682,162.055)">
                <text x="0px" y="0px" style="font-family:'Nunito-Regular', 'Nunito';font-size:20px;fill:rgb(241,221,189);stroke:rgb(253,251,212);stroke-width:1.6px;">et C</text>
            </g>
            <g transform="matrix(1,0,0,1,59.622,162.055)">
                <g>
                    <text x="0px" y="0px" style="font-family:'Nunito-Regular', 'Nunito';font-size:20px;fill:rgb(241,221,189);stroke:rgb(253,251,212);stroke-width:1.6px;">ar</text>
                    <g transform="matrix(1,0,0,1,17.64,0)">
                        <text x="0px" y="0px" style="font-family:'Nunito-Regular', 'Nunito';font-size:20px;fill:rgb(241,221,189);stroke:rgb(253,251,212);stroke-width:1.6px;">e</text>
                    </g>
                </g>
            </g>
        </g>
    </g>
</svg>
