<?xml version="1.0" encoding="UTF-8" standalone="no"?>
<!DOCTYPE svg PUBLIC "-//W3C//DTD SVG 1.1//EN" "http://www.w3.org/Graphics/SVG/1.1/DTD/svg11.dtd">
<svg width="100%" height="100%" viewBox="0 0 24 24" version="1.1" xmlns="http://www.w3.org/2000/svg" xmlns:xlink="http://www.w3.org/1999/xlink" xml:space="preserve" xmlns:serif="http://www.serif.com/" style="fill-rule:evenodd;clip-rule:evenodd;stroke-linejoin:round;stroke-miterlimit:2;">
    <path d="M20.625,2.625L3.375,2.625C2.96,2.625 2.625,2.96 2.625,3.375L2.625,20.625C2.625,21.04 2.96,21.375 3.375,21.375L20.625,21.375C21.04,21.375 21.375,21.04 21.375,20.625L21.375,3.375C21.375,2.96 21.04,2.625 20.625,2.625ZM18.462,8.098L16.962,8.098C15.788,8.098 15.56,8.655 15.56,9.476L15.56,11.283L18.363,11.283L17.998,14.112L15.56,14.112L15.56,21.375L12.637,21.375L12.637,14.114L10.193,14.114L10.193,11.283L12.637,11.283L12.637,9.197C12.637,6.776 14.116,5.456 16.277,5.456C17.313,5.456 18.202,5.534 18.462,5.569L18.462,8.098Z" style="fill:rgb(78,135,140);fill-rule:nonzero;"/>
</svg>
