<?xml version="1.0" encoding="UTF-8" standalone="no"?>
<!DOCTYPE svg PUBLIC "-//W3C//DTD SVG 1.1//EN" "http://www.w3.org/Graphics/SVG/1.1/DTD/svg11.dtd">
<svg width="100%" height="100%" viewBox="0 0 24 24" version="1.1" xmlns="http://www.w3.org/2000/svg" xmlns:xlink="http://www.w3.org/1999/xlink" xml:space="preserve" xmlns:serif="http://www.serif.com/" style="fill-rule:evenodd;clip-rule:evenodd;stroke-linejoin:round;stroke-miterlimit:2;">
    <path d="M7.8,2L16.2,2C19.4,2 22,4.6 22,7.8L22,16.2C22,17.738 21.389,19.214 20.301,20.301C19.214,21.389 17.738,22 16.2,22L7.8,22C4.6,22 2,19.4 2,16.2L2,7.8C2,6.262 2.611,4.786 3.699,3.699C4.786,2.611 6.262,2 7.8,2ZM7.6,4C6.645,4 5.73,4.379 5.054,5.054C4.379,5.73 4,6.645 4,7.6L4,16.4C4,18.39 5.61,20 7.6,20L16.4,20C17.355,20 18.27,19.621 18.946,18.946C19.621,18.27 20,17.355 20,16.4L20,7.6C20,5.61 18.39,4 16.4,4L7.6,4ZM17.25,5.5C17.581,5.5 17.9,5.632 18.134,5.866C18.368,6.101 18.5,6.418 18.5,6.75C18.5,7.082 18.368,7.399 18.134,7.634C17.9,7.868 17.581,8 17.25,8C16.919,8 16.601,7.868 16.366,7.634C16.132,7.399 16,7.082 16,6.75C16,6.418 16.132,6.101 16.366,5.866C16.601,5.632 16.919,5.5 17.25,5.5ZM12,7C13.326,7 14.598,7.527 15.536,8.464C16.473,9.402 17,10.674 17,12C17,13.326 16.473,14.598 15.536,15.536C14.598,16.473 13.326,17 12,17C10.674,17 9.402,16.473 8.464,15.536C7.527,14.598 7,13.326 7,12C7,10.674 7.527,9.402 8.464,8.464C9.402,7.527 10.674,7 12,7ZM12,9C11.204,9 10.441,9.316 9.879,9.879C9.316,10.441 9,11.204 9,12C9,12.796 9.316,13.559 9.879,14.121C10.441,14.684 11.204,15 12,15C12.796,15 13.559,14.684 14.121,14.121C14.684,13.559 15,12.796 15,12C15,11.204 14.684,10.441 14.121,9.879C13.559,9.316 12.796,9 12,9Z" style="fill:rgb(78,135,140);fill-rule:nonzero;"/>
</svg>
